<svg width="273" height="29" viewBox="0 0 273 29" fill="none" xmlns="http://www.w3.org/2000/svg">
<path d="M237.583 0.727282C237.718 0.553069 237.927 0.451172 238.147 0.451172H238.863C239.011 0.451172 239.095 0.622298 239.004 0.739745L234.436 6.61186C234.301 6.78608 234.093 6.88797 233.872 6.88797H233.157C233.008 6.88797 232.924 6.71685 233.016 6.5994L237.583 0.727282Z" fill="white"/>
<path d="M228.852 1.79132C228.814 1.42274 228.529 1.16637 228.142 1.16637H225.639L225.552 1.17086C225.182 1.20945 224.924 1.49332 224.924 1.87831V4.01411L224.929 4.10112C224.967 4.4698 225.252 4.72605 225.639 4.72605H228.142L228.229 4.72157C228.599 4.68299 228.857 4.39924 228.857 4.01411V1.87831L228.852 1.79132Z" fill="white"/>
<path d="M260.744 6.27998C260.344 6.27998 260.015 5.97872 259.973 5.59218L259.969 5.50812L259.969 1.93825C259.969 1.54035 260.271 1.21282 260.66 1.17092L260.744 1.16639H262.917C263.317 1.16639 263.646 1.46739 263.688 1.85414L263.692 1.93825L263.693 2.94581L266.191 2.94563C266.591 2.94563 266.92 3.24664 266.962 3.63339L266.967 3.7175V5.50812C266.967 5.90574 266.665 6.23351 266.276 6.27545L266.191 6.27998H260.744Z" fill="white"/>
<path fill-rule="evenodd" clip-rule="evenodd" d="M55.161 2.59677C55.161 2.20178 55.4812 1.88157 55.8762 1.88157H58.0218C58.4168 1.88157 58.737 2.20178 58.737 2.59677V10.4565L58.7371 10.464V14.7552C58.7371 15.9402 59.6977 16.9008 60.8827 16.9008H62.7289C62.4607 16.2382 62.313 15.5139 62.313 14.7552V12.6096C62.313 9.44962 64.8747 6.88797 68.0346 6.88797C71.1946 6.88797 73.7562 9.44962 73.7562 12.6096V14.7552C73.7562 17.9151 71.1946 20.4768 68.0346 20.4768H60.8827C57.7227 20.4768 55.1611 17.9151 55.1611 14.7552V14.048L55.161 14.04V2.59677ZM70.1802 12.6096C70.1802 11.4246 69.2196 10.464 68.0346 10.464C66.8497 10.464 65.889 11.4246 65.889 12.6096V14.7552C65.889 15.9402 66.8497 16.9008 68.0346 16.9008C69.2196 16.9008 70.1802 15.9402 70.1802 14.7552V12.6096Z" fill="white"/>
<path d="M23.6864 7.51292C23.6476 7.14434 23.3626 6.88797 22.9758 6.88797H17.2553L17.1679 6.89246C16.7976 6.93105 16.5402 7.21492 16.5402 7.59991V9.73571L16.5447 9.82272C16.5835 10.1914 16.8685 10.4476 17.2553 10.4476H22.9758L23.0632 10.4432C23.4335 10.4046 23.6909 10.1208 23.6909 9.73571V7.59991L23.6864 7.51292Z" fill="white"/>
<path d="M90.7626 24.0254C90.7205 23.6388 90.3915 23.3376 89.9917 23.3376H84.5444L84.46 23.3421C84.0714 23.384 83.7691 23.7118 83.7691 24.1094V25.9001L83.7736 25.9842C83.8157 26.3709 84.1447 26.6719 84.5444 26.6719L87.0427 26.6718L87.0435 27.6793L87.048 27.7634C87.0901 28.1502 87.4192 28.4512 87.8192 28.4512H89.9916L90.0761 28.4466C90.4646 28.4047 90.767 28.0772 90.767 27.6793L90.7671 24.1094L90.7626 24.0254Z" fill="white"/>
<path d="M17.3282 21.2181C17.3282 24.1765 14.7368 26.8123 11.7787 26.9107L11.6077 26.9136H5.87866C2.72003 26.9136 0.250811 24.515 0.168705 21.3987L0.166626 21.2181V14.8107C0.166626 14.4261 0.424395 14.1419 0.794407 14.1032L0.881723 14.0988H3.02691C3.41333 14.0988 3.69867 14.3555 3.73747 14.7238L3.74197 14.8107L3.73458 21.2058C3.73458 22.3509 4.6278 23.285 5.75411 23.3503L5.88018 23.3539H11.6077C12.5475 23.3539 13.6695 22.2703 13.7484 21.3228L13.7529 21.2181H10.8926C10.5058 21.2181 10.2208 20.9619 10.182 20.5932L10.1775 20.5062V18.3279C10.1775 17.9429 10.4349 17.6591 10.8052 17.6205L10.8926 17.616L22.9463 17.616C24.1313 17.616 25.0919 16.6554 25.0919 15.4704V11.1792C25.0919 10.7842 25.4121 10.464 25.8071 10.464H27.9527C28.3477 10.464 28.6679 10.7842 28.6679 11.1792V15.4704C28.6679 16.2291 28.5202 16.9534 28.252 17.616L42.9989 17.616V14.04C42.9989 11.9931 41.4701 10.464 39.4236 10.464H31.2004C30.5568 10.464 30.4328 9.8872 30.8429 9.39117L36.865 1.69896C37.1439 1.36168 37.5588 1.16637 37.9963 1.16637H40.7433C41.296 1.16637 41.5988 1.81005 41.2466 2.23595L37.636 6.88797H39.4236C43.5239 6.88797 46.5742 9.93877 46.5742 14.04V20.4768C46.5742 20.8921 46.2746 21.192 45.8592 21.192L27.9731 21.192C27.7384 21.192 27.5186 21.0768 27.385 20.8839L26.6541 19.8281C25.6555 20.6787 24.3608 21.192 22.9463 21.192H17.3229L17.3282 21.2181Z" fill="white"/>
<path d="M207.753 7.51292C207.715 7.14434 207.43 6.88797 207.043 6.88797H201.322L201.235 6.89246C200.865 6.93105 200.607 7.21492 200.607 7.59991V9.73571L200.612 9.82272C200.65 10.1914 200.936 10.4476 201.322 10.4476H207.043L207.13 10.4432C207.501 10.4046 207.758 10.1208 207.758 9.73571V7.59991L207.753 7.51292Z" fill="white"/>
<path d="M149.827 23.3376C150.214 23.3376 150.499 23.5939 150.537 23.9625L150.542 24.0495V26.1853C150.542 26.5704 150.285 26.8542 149.914 26.8928L149.827 26.8973H144.106C143.719 26.8973 143.435 26.641 143.396 26.2723L143.391 26.1853V24.0495C143.391 23.6645 143.649 23.3807 144.019 23.3421L144.106 23.3376H149.827Z" fill="white"/>
<path d="M139.811 3.93692C139.772 3.56834 139.487 3.31197 139.1 3.31197H136.954L136.867 3.31646C136.497 3.35505 136.239 3.63892 136.239 4.02391V6.15971L136.244 6.24672C136.283 6.6154 136.568 6.87165 136.954 6.87165H139.1L139.188 6.86717C139.558 6.82859 139.815 6.54484 139.815 6.15971V4.02391L139.811 3.93692Z" fill="white"/>
<path d="M177.363 3.31197C177.749 3.31197 178.034 3.56834 178.073 3.93692L178.078 4.02391V6.15971C178.078 6.54484 177.82 6.82859 177.45 6.86717L177.363 6.87165H174.86C174.473 6.87165 174.188 6.6154 174.149 6.24672L174.145 6.15971V4.02391C174.145 3.63892 174.402 3.35505 174.773 3.31646L174.86 3.31197H177.363Z" fill="white"/>
<path d="M160.191 1.16637C159.97 1.16637 159.762 1.26827 159.626 1.44248L155.059 7.3146C154.968 7.43205 155.051 7.60317 155.2 7.60317H155.915C156.136 7.60317 156.344 7.50128 156.48 7.32706L161.047 1.45494C161.138 1.3375 161.054 1.16637 160.906 1.16637H160.191Z" fill="white"/>
<path fill-rule="evenodd" clip-rule="evenodd" d="M232.375 17.616C232.644 16.9534 232.791 16.2291 232.791 15.4704V13.3248C232.791 10.1648 230.23 7.60317 227.07 7.60317C223.91 7.60317 221.348 10.1648 221.348 13.3248V15.4704C221.348 16.2291 221.496 16.9534 221.764 17.616H216.613C216.882 16.9534 217.029 16.2291 217.029 15.4704V11.1792C217.029 10.7842 216.709 10.464 216.314 10.464H214.168C213.773 10.464 213.453 10.7842 213.453 11.1792V15.4704C213.453 16.6554 212.493 17.616 211.308 17.616H197.031C195.846 17.616 194.886 16.6554 194.886 15.4704V11.1792C194.886 10.7842 194.565 10.464 194.17 10.464H192.025C191.63 10.464 191.31 10.7842 191.31 11.1792V15.4704C191.31 18.6303 193.871 21.192 197.031 21.192H211.308C212.721 21.192 214.015 20.6793 215.014 19.8298L215.743 20.8839C215.877 21.0768 216.097 21.192 216.331 21.192L242.801 21.192C244.48 21.192 245.983 20.6803 247.173 19.7943L247.927 20.8839C248.061 21.0768 248.281 21.192 248.515 21.192H252.789C254.203 21.192 255.497 20.6794 256.495 19.8299L257.225 20.8839C257.358 21.0768 257.578 21.192 257.813 21.192H260.646C262.066 21.192 263.365 20.6749 264.365 19.8188L265.102 20.8839C265.236 21.0768 265.456 21.192 265.69 21.192H266.378C269.538 21.192 272.1 18.6303 272.1 15.4704V11.1792C272.1 10.7842 271.78 10.464 271.385 10.464H269.239C268.844 10.464 268.524 10.7842 268.524 11.1792V15.4704C268.524 16.6554 267.563 17.616 266.378 17.616H265.952C266.22 16.9534 266.368 16.2291 266.368 15.4704V11.1792C266.368 10.7842 266.048 10.464 265.653 10.464H263.507C263.112 10.464 262.792 10.7842 262.792 11.1792V15.4704C262.792 16.6554 261.831 17.616 260.646 17.616H258.095C258.363 16.9534 258.511 16.2291 258.511 15.4704V11.1792C258.511 10.7842 258.191 10.464 257.796 10.464H255.65C255.255 10.464 254.935 10.7842 254.935 11.1792V15.4704C254.935 16.6554 253.974 17.616 252.789 17.616H249.065C249.634 16.5783 249.951 15.3639 249.951 14.04V13.3248C249.951 9.22357 246.901 6.17277 242.801 6.17277H241.013L244.624 1.52075C244.976 1.09485 244.673 0.451172 244.121 0.451172H241.374C240.936 0.451172 240.521 0.646481 240.242 0.983755L234.22 8.67597C233.81 9.172 233.934 9.74877 234.578 9.74877H242.801C244.847 9.74877 246.376 11.2779 246.376 13.3248V14.04C246.376 16.0868 244.847 17.616 242.801 17.616L232.375 17.616ZM229.215 15.4704V13.3248C229.215 12.1398 228.255 11.1792 227.07 11.1792C225.885 11.1792 224.924 12.1398 224.924 13.3248V15.4704C224.924 16.6554 225.885 17.616 227.07 17.616C228.255 17.616 229.215 16.6554 229.215 15.4704Z" fill="white"/>
<path fill-rule="evenodd" clip-rule="evenodd" d="M104.51 17.616V13.3248C104.51 10.1648 101.948 7.60317 98.7882 7.60317C95.6283 7.60317 93.0667 10.1648 93.0667 13.3248V15.4704C93.0667 18.6303 95.6283 21.192 98.7882 21.192C99.3759 21.192 99.9429 21.1034 100.477 20.9388C99.8644 21.9665 98.7461 22.6224 97.4059 22.6224H94.3763C93.7327 22.6224 93.6087 23.1992 94.0188 23.6952L95.549 25.6497C95.8201 25.996 96.2354 26.1984 96.6753 26.1984H97.4059C100.751 26.1984 103.398 24.1674 104.259 21.192H108.055C109.469 21.192 110.763 20.6793 111.761 19.8299L112.491 20.8839C112.624 21.0768 112.844 21.192 113.079 21.192H115.912C117.332 21.192 118.631 20.6749 119.631 19.8188L120.368 20.8839C120.502 21.0768 120.722 21.192 120.956 21.192H121.644C124.804 21.192 127.366 18.6303 127.366 15.4704V11.1792C127.366 10.7842 127.045 10.464 126.65 10.464H124.505C124.11 10.464 123.79 10.7842 123.79 11.1792V15.4704C123.79 16.6554 122.829 17.616 121.644 17.616H121.218C121.486 16.9534 121.634 16.2291 121.634 15.4704V11.1792C121.634 10.7842 121.313 10.464 120.918 10.464H118.773C118.378 10.464 118.058 10.7842 118.058 11.1792V15.4704C118.058 16.6554 117.097 17.616 115.912 17.616H113.361C113.629 16.9534 113.777 16.2291 113.777 15.4704V11.1792C113.777 10.7842 113.457 10.464 113.062 10.464H110.916C110.521 10.464 110.201 10.7842 110.201 11.1792V15.4704C110.201 16.6554 109.24 17.616 108.055 17.616H104.51ZM100.934 13.3248V15.4704C100.934 16.6554 99.9732 17.616 98.7882 17.616C97.6033 17.616 96.6427 16.6554 96.6427 15.4704V13.3248C96.6427 12.1398 97.6033 11.1792 98.7882 11.1792C99.9732 11.1792 100.934 12.1398 100.934 13.3248Z" fill="white"/>
<path d="M170.101 19.0058L171.401 20.8839C171.534 21.0768 171.754 21.192 171.989 21.192H176.978C180.138 21.192 182.7 18.6303 182.7 15.4704V11.1792C182.7 10.7842 182.38 10.464 181.985 10.464H179.839C179.444 10.464 179.124 10.7842 179.124 11.1792V15.4704C179.124 16.6554 178.163 17.616 176.978 17.616H171.108C171.677 16.5783 171.995 15.3639 171.995 14.04V13.3248C171.995 9.22357 168.944 6.17277 164.844 6.17277H163.056L166.667 1.52075C167.019 1.09485 166.716 0.451172 166.164 0.451172H163.417C162.979 0.451172 162.564 0.646481 162.285 0.983755L156.263 8.67597C155.853 9.172 155.977 9.74877 156.621 9.74877H164.844C166.89 9.74877 168.419 11.2779 168.419 13.3248V14.04C168.419 16.0868 166.89 17.616 164.844 17.616H152.961C153.229 16.9534 153.377 16.2291 153.377 15.4704V11.1792C153.377 10.7842 153.056 10.464 152.661 10.464H150.516C150.121 10.464 149.801 10.7842 149.801 11.1792V15.4704C149.801 16.6554 148.84 17.616 147.655 17.616H139.862V11.1792C139.862 10.7842 139.542 10.464 139.146 10.464H137.001C136.606 10.464 136.286 10.7842 136.286 11.1792V19.7616C136.286 21.8084 134.758 23.3376 132.711 23.3376H129.682C129.038 23.3376 128.914 23.9144 129.324 24.4104L130.854 26.3649C131.125 26.7112 131.541 26.9136 131.981 26.9136H132.711C136.812 26.9136 139.862 23.8628 139.862 19.7616L139.862 19.7492L140.647 20.8839C140.781 21.0768 141.001 21.192 141.235 21.192H147.655C149.09 21.192 150.401 20.664 151.405 19.7917L152.501 21.192H164.844C166.972 21.192 168.818 20.37 170.101 19.0058Z" fill="white"/>
<path d="M79.5946 20.8839L79.4267 20.6413C79.0241 24.2915 76.1252 26.9136 72.324 26.9136H71.5934C71.1536 26.9136 70.7382 26.7112 70.4671 26.3649L68.9369 24.4104C68.5269 23.9144 68.6509 23.3376 69.2944 23.3376H72.324C74.3704 23.3376 75.8993 21.8084 75.8993 19.7616L75.8986 11.1792C75.8986 10.7842 76.2188 10.464 76.6138 10.464H78.7594C79.1544 10.464 79.4746 10.7842 79.4746 11.1792V17.616H85.1719C86.3569 17.616 87.3175 16.6554 87.3175 15.4704V11.1792C87.3175 10.7842 87.6377 10.464 88.0327 10.464H90.1783C90.5733 10.464 90.8935 10.7842 90.8935 11.1792V15.4704C90.8935 18.6303 88.3319 21.192 85.1719 21.192H80.1827C79.948 21.192 79.7282 21.0768 79.5946 20.8839Z" fill="white"/>
<path d="M42.5243 24.4104L44.0546 26.3649C44.3257 26.7112 44.741 26.9136 45.1808 26.9136H45.9114C50.0117 26.9136 53.0621 23.8628 53.0621 19.7616V11.1792C53.0621 10.7842 52.7419 10.464 52.3469 10.464H50.2013C49.8063 10.464 49.4861 10.7842 49.4861 11.1792V19.7616C49.4861 21.8084 47.9579 23.3376 45.9114 23.3376H42.8819C42.2383 23.3376 42.1143 23.9144 42.5243 24.4104Z" fill="white"/>
<path d="M185.588 2.59677C185.193 2.59677 184.873 2.91698 184.873 3.31197V20.4768C184.873 20.8718 185.193 21.192 185.588 21.192H187.734C188.129 21.192 188.449 20.8718 188.449 20.4768V3.31197C188.449 2.91698 188.129 2.59677 187.734 2.59677H185.588Z" fill="white"/>
</svg>
